# xmcd
#
# Track frame offsets: 
#        150
#        12319
#        24968
#        37127
#        49531
#        61906
#        74710
#        87540
#        99193
#        110985
#        123325
#        133525
#        143527
#        155713
#        168888
#        182214
#        195383
#        207921
#        219455
#        232133
#        243745
#        255613
#        267185
#        278061
#        289950
#
# Disc length: 4031 seconds
#
# Revision: 0
# Processed by: cddbd v1.5.2PL0 Copyright (c) Steve Scherf et al.
# Submitted via: ExactAudioCopy v0.99pb4
#
DISCID=7a0fbd19
DTITLE=Hank Williams - Hank Williams Collected
DYEAR=2007
DGENRE=Country
TTITLE0=Never Again
TTITLE1=I Don't Care
TTITLE2=My Love For You
TTITLE3=Move It On Over
TTITLE4=Honky Tonkin'
TTITLE5=I'm A Long Gone Daddy
TTITLE6=I Can't Get You Off Of My Mind
TTITLE7=A Mansion On The Hill
TTITLE8=I'll Be A Bachelor 'Til I Die
TTITLE9=Lovesick Blues
TTITLE10=Please Don't Let Me Love You
TTITLE11=Someday You'll Call My Name 
TTITLE12=Lost Highway
TTITLE13=Mind Your Own Business
TTITLE14=You're Gonna Change
TTITLE15=Wedding Bells
TTITLE16=I'm So Lonesome I Could Cry
TTITLE17=My Bucket's Got A Hole In It
TTITLE18=I Just Don't Like This Kind Of Livin'
TTITLE19=Teardrop On A Rose
TTITLE20=Long Gone Lonesome Blues
TTITLE21=My Son Calls Another Man Daddy
TTITLE22=Why Don't You Love Me
TTITLE23=Why Should We Try Anymore
TTITLE24=They'll Never Take Her Love From Me
EXTD=
EXTT0=
EXTT1=
EXTT2=
EXTT3=
EXTT4=
EXTT5=
EXTT6=
EXTT7=
EXTT8=
EXTT9=
EXTT10=
EXTT11=
EXTT12=
EXTT13=
EXTT14=
EXTT15=
EXTT16=
EXTT17=
EXTT18=
EXTT19=
EXTT20=
EXTT21=
EXTT22=
EXTT23=
EXTT24=
PLAYORDER=
